HIERARCHY
ROOT Hips
{
	OFFSET 0.00000 0.00000 0.00000
	CHANNELS 6 Xposition Yposition Zposition Zrotation Yrotation Xrotation 
	JOINT LHipJoint
	{
		OFFSET 0 0 0
		CHANNELS 3 Zrotation Yrotation Xrotation
		JOINT LeftUpLeg
		{
			OFFSET 1.66553 -1.82942 0.76350
			CHANNELS 3 Zrotation Yrotation Xrotation
			JOINT LeftLeg
			{
				OFFSET 2.41740 -6.64177 0.00000
				CHANNELS 3 Zrotation Yrotation Xrotation
				JOINT LeftFoot
				{
					OFFSET 2.71614 -7.46254 0.00000
					CHANNELS 3 Zrotation Yrotation Xrotation
					JOINT LeftToeBase
					{
						OFFSET 0.08005 -0.21993 1.82495
						CHANNELS 3 Zrotation Yrotation Xrotation
						End Site
						{
							OFFSET 0.00000 -0.00000 0.93441
						}
					}
				}
			}
		}
	}
	JOINT RHipJoint
	{
		OFFSET 0 0 0
		CHANNELS 3 Zrotation Yrotation Xrotation
		JOINT RightUpLeg
		{
			OFFSET -1.63725 -1.82942 0.76350
			CHANNELS 3 Zrotation Yrotation Xrotation
			JOINT RightLeg
			{
				OFFSET -2.40538 -6.60872 0.00000
				CHANNELS 3 Zrotation Yrotation Xrotation
				JOINT RightFoot
				{
					OFFSET -2.73312 -7.50919 0.00000
					CHANNELS 3 Zrotation Yrotation Xrotation
					JOINT RightToeBase
					{
						OFFSET -0.15567 -0.42769 1.93504
						CHANNELS 3 Zrotation Yrotation Xrotation
						End Site
						{
							OFFSET -0.00000 -0.00000 1.00100
						}
					}
				}
			}
		}
	}
	JOINT LowerBack
	{
		OFFSET 0 0 0
		CHANNELS 3 Zrotation Yrotation Xrotation
		JOINT Spine
		{
			OFFSET 0.00326 2.30118 -0.13017
			CHANNELS 3 Zrotation Yrotation Xrotation
			JOINT Spine1
			{
				OFFSET 0.02887 2.30677 0.00834
				CHANNELS 3 Zrotation Yrotation Xrotation
				JOINT Neck
				{
					OFFSET 0 0 0
					CHANNELS 3 Zrotation Yrotation Xrotation
					JOINT Neck1
					{
						OFFSET 0.12946 1.68326 0.00713
						CHANNELS 3 Zrotation Yrotation Xrotation
						JOINT Head
						{
							OFFSET -0.24364 1.67243 -0.16079
							CHANNELS 3 Zrotation Yrotation Xrotation
							End Site
							{
								OFFSET -0.09229 1.70819 -0.06383
							}
						}
					}
				}
				JOINT LeftShoulder
				{
					OFFSET 0 0 0
					CHANNELS 3 Zrotation Yrotation Xrotation
					JOINT LeftArm
					{
						OFFSET 3.28104 0.69567 -0.00556
						CHANNELS 3 Zrotation Yrotation Xrotation
						JOINT LeftForeArm
						{
							OFFSET 5.70706 -0.00000 -0.00000
							CHANNELS 3 Zrotation Yrotation Xrotation
							JOINT LeftHand
							{
								OFFSET 3.33243 -0.00000 0.00000
								CHANNELS 3 Zrotation Yrotation Xrotation
								JOINT LeftFingerBase
								{
									OFFSET 0 0 0
									CHANNELS 3 Zrotation Yrotation Xrotation
									JOINT LeftHandIndex1
									{
										OFFSET 0.79269 -0.00000 0.00000
										CHANNELS 3 Zrotation Yrotation Xrotation
										End Site
										{
											OFFSET 0.63909 -0.00000 0.00000
										}
									}
								}
								JOINT LThumb
								{
									OFFSET 0 0 0
									CHANNELS 3 Zrotation Yrotation Xrotation
									End Site
									{
										OFFSET 0.64884 -0.00000 0.64884
									}
								}
							}
						}
					}
				}
				JOINT RightShoulder
				{
					OFFSET 0 0 0
					CHANNELS 3 Zrotation Yrotation Xrotation
					JOINT RightArm
					{
						OFFSET -3.40955 0.64424 0.14010
						CHANNELS 3 Zrotation Yrotation Xrotation
						JOINT RightForeArm
						{
							OFFSET -5.88176 -0.00000 -0.00000
							CHANNELS 3 Zrotation Yrotation Xrotation
							JOINT RightHand
							{
								OFFSET -3.28156 -0.00000 0.00000
								CHANNELS 3 Zrotation Yrotation Xrotation
								JOINT RightFingerBase
								{
									OFFSET 0 0 0
									CHANNELS 3 Zrotation Yrotation Xrotation
									JOINT RightHandIndex1
									{
										OFFSET -0.86313 -0.00000 0.00000
										CHANNELS 3 Zrotation Yrotation Xrotation
										End Site
										{
											OFFSET -0.69587 -0.00000 0.00000
										}
									}
								}
								JOINT RThumb
								{
									OFFSET 0 0 0
									CHANNELS 3 Zrotation Yrotation Xrotation
									End Site
									{
										OFFSET -0.70650 -0.00000 0.70650
									}
								}
							}
						}
					}
				}
			}
		}
	}
}
MOTION
Frames: 7
Frame Time: 0.0136054
0.00 0.00 0.00 0 0 0 0 0 0 -21 0 0 0 0 0 0 0 0 0 0 0 0 0 0 21 0 0 0 0 0 0 0 0 0 0 0 0 0 0 0 0 0 0 0 0 0 0 -16 0 0 21 0 0 11 0 0 0 -8 0 0 0 0 0 0 0 0 0 0 0 0 0 0 0 0 0 0 0 0 8 0 0 0 0 0 0 0 0 0 0 0 0 0 0 0 0 0
0.00 0.00 0.00 2.5266 -30.4664 38.9460 0.0000 0.0000 0.0000 4.5855 -11.0351 -51.9058 1.8712 8.5925 24.5286 -0.0302 3.3308 -2.5604 5.2605 -13.6713 -41.9363 0.0000 0.0000 0.0000 -10.7420 22.5835 -54.1831 -2.1202 -9.1121 26.1465 -0.7025 3.1427 -15.0800 -1.2896 7.1956 -20.2961 0.1845 -3.0768 22.5993 2.2803 -3.7029 -5.6279 3.8485 -1.4442 -18.7595 12.5900 7.5248 5.2406 -22.2175 7.8613 -21.2686 -9.9308 4.7096 -5.5293 0.0000 -0.0000 0.0000 -71.3121 -0.7334 10.1860 96.9943 -59.8143 -66.0534 -0.0000 0.0000 -24.0377 27.8844 25.9309 13.0278 -7.1250 0.0000 -0.0000 -2.2302 58.7817 -0.7516 0.0000 -0.0000 0.0000 53.0552 3.6263 -20.3205 -16.7983 26.5911 -3.9966 0.0000 -0.0000 -11.4871 -21.9972 12.9990 -5.1920 7.1250 -0.0000 -0.0000 3.6637 -16.0180 2.5157
0.00 0.00 0.00 1.6823 -29.2039 38.5136 0.0000 0.0000 0.0000 4.1523 -11.0779 -49.9467 1.7000 8.2110 23.3568 -0.0244 2.8335 -1.6766 5.5995 -14.0287 -43.3524 0.0000 0.0000 0.0000 -9.2814 22.5498 -49.9464 -1.6468 -8.0881 22.9819 -0.5516 2.3132 -13.4269 -1.5248 7.7968 -22.0986 1.0129 -2.7136 21.6141 1.8501 -3.0622 -5.3756 2.7502 -1.2792 -18.5924 12.4223 6.9078 4.4516 -21.7829 6.9394 -21.3062 -9.7151 4.1910 -5.6078 -0.0000 0.0000 0.0000 -69.5698 6.1219 7.4317 78.3978 -59.4852 -49.9695 -0.0000 0.0000 -21.1745 26.9135 26.0379 12.5620 -7.1250 0.0000 -0.0000 -3.3722 58.6660 -1.1276 -0.0000 0.0000 0.0000 49.2658 1.7028 -15.4092 -21.2932 32.1690 -6.2053 0.0000 -0.0000 -17.3530 -24.6381 9.4639 -4.3127 7.1250 -0.0000 -0.0000 1.6556 -19.5900 1.0051
0.00 0.00 0.00 0.5325 -29.4706 38.4899 0.0000 0.0000 0.0000 4.1109 -10.9529 -46.7872 1.3143 7.2614 20.4922 -0.0386 4.4407 1.3134 5.6006 -14.0298 -43.3568 0.0000 0.0000 0.0000 -7.4704 22.1597 -47.8335 -1.3812 -7.4365 21.0152 -0.2399 3.7940 -8.7221 -1.2329 7.0416 -19.8385 0.7118 -2.3782 20.5683 1.4704 -2.7821 -5.4991 2.3158 -1.1731 -18.0994 13.1468 7.0506 3.5777 -22.6061 6.9215 -21.8122 -10.1241 4.1507 -5.5139 0.0000 0.0000 0.0000 -62.7611 12.7055 2.8808 52.9539 -54.1195 -28.5507 -0.0000 0.0000 -20.2157 28.3414 26.3964 13.4846 -7.1250 0.0000 -0.0000 -1.8777 59.3894 -0.6601 0.0000 0.0000 0.0000 46.3357 -1.5023 -7.2997 -28.2747 39.3679 -10.2975 0.0000 -0.0000 -21.8555 -12.6188 19.2954 -4.2308 7.1250 -0.0000 -0.0000 10.1278 -10.4822 8.2495
0.00 0.00 0.00 -1.1534 -10.2061 50.4752 0.0000 0.0000 0.0000 16.1388 -18.4485 -63.7257 1.3270 7.2952 20.5929 0.0704 3.6815 -7.6886 3.8967 -12.0216 -35.8086 0.0000 0.0000 0.0000 -7.9559 18.9166 -54.4377 -1.8866 -8.6257 24.6313 -0.5305 -7.0160 -18.0821 -1.6882 8.1839 -23.2741 0.4079 0.0590 22.5440 -1.3519 -0.0479 -5.9875 -1.7338 -0.1790 -19.3581 14.6453 17.1561 11.8625 -35.8321 19.5922 -31.5681 -15.9803 12.6778 -5.3193 -0.0000 -0.0000 0.0000 -77.1102 30.9301 13.1309 17.1065 -26.9980 -4.1356 -0.0000 0.0000 -24.1026 25.9435 28.7895 13.1866 -7.1250 0.0000 -0.0000 -5.7254 61.3186 -2.2793 -0.0000 -0.0000 0.0000 78.1777 -25.7667 2.9874 -16.7878 26.5771 -3.9919 0.0000 0.0000 6.4185 -39.0626 17.7404 -13.8904 7.1250 -0.0000 -0.0000 -7.0919 -7.7278 -6.1221
0.00 0.00 0.00 -0.6326 -5.9813 42.4741 0.0000 0.0000 0.0000 9.9396 -17.4357 -60.0532 2.0066 8.8798 25.4200 0.0707 -3.8430 -5.0794 3.3632 -11.2610 -33.1654 0.0000 0.0000 0.0000 -1.5278 15.9993 -46.1130 -2.3527 -9.5650 27.5791 -0.8405 -4.7948 -19.7012 -1.4674 7.6552 -21.6715 1.9154 1.5799 21.1290 -1.5596 2.4143 -4.8968 -3.7865 0.7288 -17.5820 16.1621 15.6729 8.9758 -34.7533 18.0586 -28.9924 -15.2861 11.3562 -4.4059 -0.0000 -0.0000 0.0000 -48.0758 18.7551 -6.1818 27.3778 -38.5371 -9.7336 -0.0000 0.0000 -21.8833 28.8354 24.6633 12.9386 -7.1250 0.0000 -0.0000 -0.7269 57.6402 -0.2250 -0.0000 -0.0000 0.0000 31.4098 5.7122 -3.2672 -29.3712 40.3483 -11.0002 0.0000 0.0000 12.2924 -11.0846 15.9768 -3.0867 7.1250 -0.0000 -0.0000 11.1239 -13.9304 8.2794
0.00 0.00 0.00 -0.3818 -2.2057 42.9397 0.0000 0.0000 0.0000 10.0607 -18.4921 -60.2171 1.7435 8.3101 23.6600 0.0361 -5.1007 -4.6501 2.8926 -10.5192 -30.6749 0.0000 0.0000 0.0000 -0.0380 14.5938 -43.9131 -2.0743 -9.0191 25.8552 -0.8872 -5.6681 -20.7192 -1.1589 6.8346 -19.2263 1.6755 1.7544 20.9757 -2.0401 2.5015 -4.9182 -4.2380 0.7576 -17.4941 16.1458 14.5791 8.2702 -33.7300 16.5999 -28.6531 -15.0475 10.4721 -4.7349 0.0000 -0.0000 0.0000 -51.1076 20.0951 -15.0557 42.9539 -49.7258 -20.6656 -0.0000 0.0000 -21.7996 31.2816 24.2795 14.0269 -7.1250 0.0000 -0.0000 2.1591 57.7927 0.6763 0.0000 -0.0000 0.0000 34.1081 3.5957 -0.5946 -70.7335 58.5499 -43.3960 0.0000 0.0000 18.4280 -11.7630 15.8598 -3.2571 7.1250 -0.0000 -0.0000 10.6728 -13.9946 7.9163
